<?xml version="1.0" encoding="UTF-8"?>
<svg width="129px" height="26px" viewBox="0 0 129 26" version="1.1" xmlns="http://www.w3.org/2000/svg" xmlns:xlink="http://www.w3.org/1999/xlink">
    <!-- Generator: sketchtool 46.2 (44496) - http://www.bohemiancoding.com/sketch -->
    <title>4E516690-BC8D-437F-AD3F-780399FA2803</title>
    <desc>Created with sketchtool.</desc>
    <defs></defs>
    <g id="Symbols" stroke="none" stroke-width="1" fill="none" fill-rule="evenodd">
        <g id="Logo-Medox" transform="translate(-3.000000, -2.000000)">
            <g>
                <path d="M44,24.6174497 L46.7330885,24.6174497 L46.7330885,10.7946309 L46.7837013,10.7946309 L53.84418,24.6174497 L54.9323541,24.6174497 L61.9928328,10.7946309 L62.0434456,10.7946309 L62.0434456,24.6174497 L64.7765341,24.6174497 L64.7765341,6.76510067 L61.3348671,6.76510067 L54.4262266,20.5369128 L54.3756139,20.5369128 L47.441667,6.76510067 L44,6.76510067 L44,24.6174497 Z M75.4305181,25 C71.0019024,25 68.1675884,22.1946309 68.1675884,17.9100671 C68.1675884,13.6255034 71.1284343,10.7181208 75.3292926,10.7181208 C79.4795381,10.7181208 82.4150776,13.7530201 82.4150776,17.8590604 L82.4150776,18.7516779 L70.774145,18.7516779 C70.8500642,21.1489933 72.798655,22.7812081 75.4305181,22.7812081 C77.3538026,22.7812081 78.8721851,21.9395973 80.0615847,20.2053691 L81.9342565,21.6845638 C80.4664867,23.852349 78.2901385,25 75.4305181,25 Z M70.8247578,16.7369128 L79.808521,16.7369128 C79.6313764,14.5691275 77.7333982,12.9369128 75.3545989,12.9369128 C72.8239614,12.9369128 70.976596,14.5691275 70.8247578,16.7369128 Z M91.9555811,25 C87.7547228,25 84.7432642,22.0416107 84.7432642,17.8590604 C84.7432642,13.7785235 87.7800292,10.7181208 91.8290492,10.7181208 C93.8282529,10.7181208 95.5996992,11.3812081 96.6878733,12.5798658 L96.738486,12.5798658 L96.738486,6 L99.3450427,6 L99.3450427,24.6174497 L96.8903243,24.6174497 L96.8903243,23.0872483 L96.8397115,23.0872483 C95.7768438,24.3114094 94.0053975,25 91.9555811,25 Z M92.1833385,22.6791946 C94.7392824,22.6791946 96.738486,20.9449664 96.738486,18.7771812 L96.738486,16.9409396 C96.738486,14.747651 94.713976,13.0389262 92.082113,13.0389262 C89.247799,13.0389262 87.3498208,14.9516779 87.3498208,17.8590604 C87.3498208,20.7919463 89.2224926,22.6791946 92.1833385,22.6791946 Z M109.594125,25 C105.317347,25 102.229969,21.9395973 102.229969,17.8590604 C102.229969,13.7785235 105.317347,10.7181208 109.594125,10.7181208 C113.870902,10.7181208 116.983586,13.7785235 116.983586,17.8590604 C116.983586,21.9395973 113.870902,25 109.594125,25 Z M109.594125,22.6791946 C112.403132,22.6791946 114.37703,20.766443 114.37703,17.8590604 C114.37703,14.9516779 112.403132,13.0389262 109.594125,13.0389262 C106.810423,13.0389262 104.836526,14.9516779 104.836526,17.8590604 C104.836526,20.766443 106.810423,22.6791946 109.594125,22.6791946 Z M117.170464,24.6174497 L120.384374,24.6174497 L124.534619,19.4402685 L124.585232,19.4402685 L128.760784,24.6174497 L132,24.6174497 L126.255453,17.757047 L131.797549,11.1006711 L128.583639,11.1006711 L124.585232,16.0738255 L124.534619,16.0738255 L120.586825,11.1006711 L117.347609,11.1006711 L122.864399,17.757047 L117.170464,24.6174497 Z" id="Medox" fill="#6078EA"></path>
                <g id="Heart">
                    <path d="M18.8898808,6.32997632 L20.1756522,5.04420488 L20.1756522,5.04420488 C23.2746138,1.94524327 28.2990233,1.94524327 31.3979849,5.04420488 L31.3979849,5.04420488 C34.4969465,8.14316648 34.4969465,13.167576 31.3979849,16.2665376 L26.2469312,21.4175913 C27.6137274,18.2527845 27.0256755,14.4657711 24.4697705,11.9098661 L18.8898808,6.32997632 Z" id="Combined-Shape" fill="#6078EA"></path>
                    <path d="M8.79937733,7.0569863 L19.8083499,7.0569863 L19.8083499,7.0569863 C23.8140788,7.0569863 27.0613636,10.3042711 27.0613636,14.31 L27.0613636,14.31 L27.0613636,14.31 C27.0613636,18.3157289 23.8140788,21.5630137 19.8083499,21.5630137 L2.99363275,21.5630137 L2.99363275,21.5630137 C2.19432809,21.5630137 1.54636364,20.9150492 1.54636364,20.1157446 L1.54636364,14.31 L1.54636364,14.31 C1.54636364,10.3042711 4.79364848,7.0569863 8.79937733,7.0569863 Z" id="Rectangle-26-Copy" fill="#74BFFF" transform="translate(14.303864, 14.310000) scale(-1, 1) rotate(-45.000000) translate(-14.303864, -14.310000) "></path>
                </g>
            </g>
        </g>
    </g>
</svg>