<?xml version="1.0" standalone="no"?>
<!DOCTYPE svg PUBLIC "-//W3C//DTD SVG 20010904//EN"
 "http://www.w3.org/TR/2001/REC-SVG-20010904/DTD/svg10.dtd">
<svg version="1.0" xmlns="http://www.w3.org/2000/svg"
 width="16.000000pt" height="16.000000pt" viewBox="0 0 16.000000 16.000000"
 preserveAspectRatio="xMidYMid meet">
<metadata>
Created by potrace 1.11, written by Peter Selinger 2001-2013
</metadata>
<g transform="translate(0.000000,16.000000) scale(0.001874,-0.001874)"
fill="#000000" stroke="none">
<path d="M649 7683 c26 -76 182 -531 346 -1010 164 -480 302 -873 305 -873 4
0 13 12 21 26 7 14 32 38 54 53 60 42 2152 761 2211 761 46 0 2139 -501 2177
-522 46 -24 113 -87 234 -218 316 -341 508 -629 595 -889 30 -91 32 -104 32
-251 1 -178 -18 -302 -108 -706 -30 -131 -53 -240 -52 -241 1 -1 359 355 796
792 437 437 792 796 790 798 -4 3 -7337 2384 -7427 2411 -21 7 -20 0 26 -131z"/>
<path d="M2505 6240 c-572 -198 -1059 -369 -1082 -381 -77 -39 -137 -162 -73
-149 54 11 146 3 180 -14 56 -29 767 -742 796 -798 32 -64 33 -144 0 -213 -27
-60 -67 -96 -132 -121 -46 -17 -54 -17 -550 27 -277 24 -504 41 -504 38 0 -4
18 -92 40 -195 l41 -189 312 -312 311 -313 111 -38 110 -39 35 -99 c33 -92 37
-100 70 -111 68 -24 165 7 212 69 14 18 52 116 87 219 34 103 75 206 90 231
39 62 112 98 195 98 113 -1 187 -56 231 -170 14 -37 37 -78 50 -90 l25 -24 28
20 c337 246 538 379 837 551 182 105 344 197 360 205 101 51 237 15 300 -80
52 -78 51 -96 -25 -552 -38 -228 -74 -431 -80 -450 -5 -20 -26 -55 -46 -78
l-35 -42 28 -10 c15 -6 34 -13 41 -15 20 -7 1438 1071 1464 1113 26 43 34 117
18 167 -7 21 -28 55 -47 76 -68 75 31 76 -1458 -13 -731 -43 -1347 -76 -1368
-73 -116 17 -200 112 -201 230 -1 56 18 107 273 743 150 375 283 697 295 714
12 18 43 46 70 62 42 26 58 30 120 30 80 1 136 -22 178 -72 14 -16 91 -146
173 -288 81 -143 149 -260 150 -262 2 -2 214 58 472 132 516 150 535 153 621
110 114 -57 163 -205 106 -316 -17 -32 -435 -640 -463 -672 -29 -34 -112 -66
-171 -66 -69 0 -148 35 -183 81 -19 26 -300 508 -419 719 -159 282 -299 517
-323 542 -78 80 -208 76 -288 -9 -21 -22 -104 -221 -302 -719 -151 -379 -275
-702 -275 -718 0 -85 64 -174 141 -198 37 -10 234 -1 1398 67 l1356 79 56 -26
c140 -64 184 -245 87 -362 -16 -20 -340 -271 -719 -558 -379 -287 -689 -525
-689 -528 0 -3 136 -48 303 -99 166 -51 391 -120 499 -154 l198 -61 79 77 79
77 70 0 71 0 12 43 c44 163 26 139 300 413 l252 252 38 163 c53 223 115 530
135 669 24 166 16 298 -24 417 -75 221 -229 467 -460 735 -106 122 -296 317
-332 341 -32 21 -2126 527 -2177 526 -23 0 -455 -144 -1078 -359z"/>
<path d="M5095 5875 c-5 -2 -217 -63 -470 -135 -253 -73 -461 -134 -463 -135
-7 -7 365 -643 397 -678 23 -26 49 -42 87 -53 49 -14 59 -14 107 0 33 10 64
27 84 48 39 42 460 649 473 683 35 92 -24 220 -116 255 -29 11 -86 20 -99 15z"/>
<path d="M1380 5673 c-8 -2 -21 -6 -27 -8 -9 -3 4 -51 43 -164 l55 -159 -169
-296 c-159 -279 -169 -299 -162 -332 5 -20 10 -37 12 -39 5 -5 920 -85 976
-85 69 0 109 18 154 68 59 65 71 149 33 222 -7 14 -184 194 -392 401 -320 318
-384 377 -419 387 -43 12 -78 14 -104 5z"/>
<path d="M4323 4420 c-12 -5 -177 -99 -367 -209 -267 -155 -402 -240 -601
-382 -162 -115 -251 -185 -243 -189 7 -4 287 -92 621 -195 589 -183 609 -188
635 -173 15 9 39 36 54 60 24 38 35 92 99 475 81 481 81 476 16 550 -54 61
-148 89 -214 63z"/>
<path d="M1244 4139 c3 -14 20 -93 37 -175 17 -82 33 -150 34 -152 5 -6 418
-152 421 -149 2 2 -110 115 -248 252 -177 177 -249 242 -244 224z"/>
<path d="M2696 3908 c-23 -7 -56 -27 -80 -52 -37 -37 -48 -61 -110 -244 -40
-118 -80 -218 -96 -241 -41 -56 -109 -86 -192 -85 l-66 0 30 -80 c16 -44 30
-81 31 -82 1 -1 348 -106 771 -232 l770 -231 179 136 c99 75 251 189 338 255
87 65 160 122 163 127 9 13 -80 34 -115 27 -17 -3 -248 -17 -512 -32 -265 -14
-543 -29 -617 -33 -74 -4 -154 -4 -178 1 -147 27 -227 203 -157 344 23 46 45
67 163 150 2 1 -10 22 -26 46 -16 24 -36 64 -43 88 -19 62 -81 123 -141 138
-54 14 -59 14 -112 0z"/>
<path d="M2981 3562 c-46 -35 -82 -72 -95 -97 -47 -91 -11 -208 81 -262 57
-33 60 -33 748 2 561 29 555 28 535 38 -8 4 -274 87 -590 186 -316 98 -582
181 -590 184 -9 4 -44 -16 -89 -51z"/>
<path d="M4299 3022 c-107 -81 -256 -195 -332 -251 -76 -57 -136 -105 -134
-108 2 -2 342 2 755 9 l751 12 83 83 c45 45 80 84 77 86 -2 3 -121 41 -264 85
-258 80 -680 212 -721 226 -18 5 -59 -22 -215 -142z"/>
<path d="M2232 3058 c3 -7 202 -589 443 -1293 240 -704 440 -1283 444 -1287 3
-4 495 481 1091 1077 l1085 1085 -135 0 c-74 0 -421 -5 -770 -11 l-635 -11
-756 226 c-416 124 -760 226 -764 226 -4 0 -5 -6 -3 -12z"/>
</g>
</svg>
