<?xml version="1.0" standalone="no"?>
<!DOCTYPE svg PUBLIC "-//W3C//DTD SVG 20010904//EN"
 "http://www.w3.org/TR/2001/REC-SVG-20010904/DTD/svg10.dtd">
<svg version="1.0" xmlns="http://www.w3.org/2000/svg"
 width="374.000000pt" height="374.000000pt" viewBox="0 0 374.000000 374.000000"
 preserveAspectRatio="xMidYMid meet">
<metadata>
Created by potrace 1.11, written by Peter Selinger 2001-2013
</metadata>
<g transform="translate(0.000000,374.000000) scale(0.100000,-0.100000)"
fill="#000000" stroke="none">
<path d="M3088 2555 c-2 -2 -37 -5 -78 -9 -41 -3 -102 -8 -135 -10 -33 -3
-100 -8 -149 -11 -63 -4 -112 -14 -165 -35 -109 -41 -128 -46 -307 -80 -343
-65 -433 -106 -591 -269 -175 -181 -276 -363 -297 -541 -9 -76 -17 -227 -20
-386 -2 -87 -8 -159 -15 -171 -19 -36 -60 -62 -133 -84 -100 -29 -392 -89
-437 -89 -55 0 -158 34 -275 91 -122 58 -191 77 -273 74 -66 -3 -148 -35 -192
-73 -51 -46 2 -96 89 -84 76 10 151 3 191 -17 39 -21 89 -66 89 -82 0 -16 86
-70 154 -96 118 -45 200 -40 486 29 294 72 306 73 345 45 48 -36 116 -62 190
-72 22 -3 54 -8 70 -12 26 -5 339 -14 460 -13 53 1 103 18 115 39 7 15 17 16
59 11 105 -13 217 8 230 43 10 26 -2 73 -24 97 -22 25 -19 35 30 95 51 63 74
129 81 229 2 39 11 80 20 94 15 23 17 20 103 -150 49 -95 98 -192 110 -215 20
-37 26 -61 30 -114 2 -28 82 -111 100 -104 17 7 153 8 187 1 45 -9 89 58 61
95 -14 19 -70 49 -91 49 -9 0 -29 12 -46 27 -31 29 -55 101 -66 198 -3 28 -9
75 -14 105 -5 30 -12 92 -15 136 l-6 81 31 7 c17 3 84 27 147 52 121 48 144
51 248 28 54 -11 89 -10 125 4 50 20 54 26 37 58 -37 71 -114 115 -225 128
-15 2 -29 4 -31 5 -2 0 2 8 9 16 8 9 21 13 36 9 13 -4 31 -1 38 5 8 7 20 11
28 10 36 -4 47 5 76 64 17 34 44 75 61 91 51 46 63 79 64 175 0 47 -3 112 -7
143 -9 73 5 104 83 188 34 36 61 68 61 72 0 11 -30 38 -43 39 -7 0 -23 2 -37
3 -14 2 -38 -1 -53 -5 -23 -7 -28 -5 -26 9 5 32 -11 72 -29 72 -9 0 -39 -12
-67 -25 -63 -31 -66 -31 -134 3 -49 24 -69 27 -158 29 -56 1 -103 0 -105 -2z
m75 -808 c17 -23 39 -38 63 -44 23 -5 40 -16 45 -29 6 -17 4 -21 -9 -18 -9 3
-77 -11 -149 -30 -73 -19 -133 -30 -133 -25 0 17 21 52 51 87 16 18 38 51 49
72 24 47 39 44 83 -13z"/>
</g>
</svg>
