<?xml version="1.0" encoding="UTF-8"?>
<svg width="139px" height="30px" viewBox="0 0 139 30" version="1.1" xmlns="http://www.w3.org/2000/svg" xmlns:xlink="http://www.w3.org/1999/xlink">
    <!-- Generator: Sketch 42 (36781) - http://www.bohemiancoding.com/sketch -->
    <title>Icon/Logo Hz</title>
    <desc>Created with Sketch.</desc>
    <defs>
        <path d="M131.991,0.122 L122.226,3.678 C121.714,3.865 121.304,4.24 121.074,4.734 C120.844,5.225 120.82,5.781 121.005,6.295 L123.13,12.135 C121.876,13.937 121.261,14.838 120.877,15.432 C120.691,15.714 120.675,16.076 120.838,16.376 C121,16.675 121.311,16.861 121.649,16.861 C121.822,16.861 121.879,16.861 124.503,15.901 L124.559,16.059 C124.855,16.863 125.626,17.403 126.479,17.403 C126.718,17.403 126.952,17.362 127.178,17.279 L136.942,13.725 C137.452,13.538 137.861,13.162 138.091,12.669 C138.324,12.173 138.348,11.619 138.16,11.108 L134.609,1.343 C134.316,0.54 133.545,0 132.69,0 C132.45,0 132.216,0.041 131.991,0.122 L131.991,0.122 Z M124.919,12.798 C125.09,12.555 125.134,12.242 125.033,11.955 L122.741,5.665 C122.722,5.614 122.724,5.564 122.751,5.507 C122.771,5.464 122.807,5.431 122.858,5.413 L132.676,1.849 C132.758,1.849 132.848,1.908 132.873,1.977 L136.428,11.739 C136.464,11.839 136.411,11.954 136.31,11.99 L126.494,15.552 C126.41,15.552 126.318,15.494 126.294,15.425 L125.922,14.399 C125.837,14.169 125.662,13.979 125.44,13.878 C125.319,13.823 125.189,13.795 125.054,13.795 C124.945,13.795 124.841,13.812 124.736,13.851 L124,14.12 C124.272,13.728 124.577,13.287 124.919,12.798 L124.919,12.798 Z M102.326,10.274 L105.927,10.274 L105.927,7.308 L102.326,7.308 L102.326,10.274 L102.326,10.274 Z M97.687,25.411 L101.286,25.411 L101.286,7.307 L97.687,7.307 L97.687,25.411 L97.687,25.411 Z M83.995,7.308 L83.995,25.411 L87.418,25.411 L87.418,23.737 L87.469,23.737 C87.857,24.465 88.432,24.979 89.193,25.284 C89.954,25.589 90.817,25.742 91.78,25.742 C92.438,25.742 93.089,25.606 93.731,25.334 C94.374,25.065 94.951,24.649 95.468,24.092 C95.984,23.535 96.401,22.821 96.722,21.95 C97.044,21.081 97.204,20.045 97.204,18.844 C97.204,17.643 97.044,16.609 96.722,15.738 C96.401,14.868 95.984,14.154 95.468,13.596 C94.951,13.039 94.374,12.624 93.731,12.354 C93.089,12.084 92.438,11.948 91.78,11.948 C90.968,11.948 90.186,12.104 89.435,12.418 C88.681,12.73 88.086,13.225 87.647,13.9 L87.596,13.9 L87.596,7.308 L83.995,7.308 L83.995,7.308 Z M89.168,22.711 C88.779,22.484 88.458,22.175 88.204,21.785 C87.951,21.396 87.765,20.949 87.647,20.442 C87.527,19.935 87.469,19.411 87.469,18.871 C87.469,18.311 87.527,17.778 87.647,17.273 C87.765,16.765 87.951,16.318 88.204,15.928 C88.458,15.54 88.779,15.231 89.168,15.003 C89.556,14.775 90.012,14.661 90.537,14.661 C91.077,14.661 91.538,14.775 91.919,15.003 C92.298,15.231 92.616,15.54 92.87,15.928 C93.122,16.318 93.308,16.765 93.427,17.273 C93.545,17.778 93.605,18.311 93.605,18.871 C93.605,19.411 93.545,19.935 93.427,20.442 C93.308,20.949 93.122,21.396 92.87,21.785 C92.616,22.175 92.298,22.484 91.919,22.711 C91.538,22.938 91.077,23.052 90.537,23.052 C90.012,23.052 89.556,22.938 89.168,22.711 L89.168,22.711 Z M28.6,7.308 L28.6,25.411 L32.579,25.411 L32.579,18.337 L36.559,18.337 C37.557,18.337 38.275,18.557 38.715,18.995 C39.153,19.435 39.442,20.128 39.578,21.077 C39.677,21.803 39.754,22.563 39.806,23.357 C39.855,24.152 39.991,24.837 40.211,25.411 L44.191,25.411 C44.005,25.158 43.866,24.85 43.773,24.486 C43.68,24.122 43.612,23.737 43.571,23.331 C43.528,22.926 43.499,22.529 43.481,22.14 C43.465,21.752 43.447,21.414 43.43,21.126 C43.397,20.67 43.334,20.212 43.241,19.758 C43.148,19.3 43,18.883 42.797,18.501 C42.593,18.12 42.332,17.793 42.011,17.513 C41.689,17.234 41.284,17.028 40.795,16.892 L40.795,16.841 C41.809,16.435 42.539,15.844 42.987,15.067 C43.434,14.29 43.659,13.367 43.659,12.302 C43.659,11.61 43.536,10.963 43.29,10.363 C43.046,9.764 42.692,9.235 42.226,8.78 C41.762,8.322 41.203,7.963 40.553,7.701 C39.902,7.439 39.171,7.308 38.361,7.308 L28.6,7.308 L28.6,7.308 Z M32.579,10.402 L36.939,10.402 C37.853,10.402 38.538,10.6 38.994,10.998 C39.45,11.396 39.677,12.034 39.677,12.913 C39.677,13.825 39.45,14.484 38.994,14.888 C38.538,15.295 37.853,15.497 36.939,15.497 L32.579,15.497 L32.579,10.402 L32.579,10.402 Z M0,7.308 L0,25.411 L8.772,25.411 C9.585,25.411 10.374,25.309 11.142,25.107 C11.913,24.904 12.597,24.591 13.197,24.169 C13.797,23.746 14.275,23.201 14.631,22.533 C14.904,22.015 15.073,21.424 15.135,20.758 C15.001,20.165 14.933,19.536 14.933,18.871 C14.933,18.758 14.935,18.644 14.939,18.532 C14.803,18.07 14.602,17.645 14.338,17.259 C13.788,16.456 12.956,15.895 11.839,15.573 C12.652,15.185 13.265,14.686 13.679,14.078 C14.094,13.47 14.301,12.709 14.301,11.795 C14.301,10.951 14.161,10.241 13.88,9.667 C13.602,9.091 13.209,8.631 12.702,8.285 C12.195,7.938 11.587,7.688 10.878,7.536 C10.168,7.383 9.381,7.308 8.519,7.308 L0,7.308 L0,7.308 Z M3.981,10.402 L7.708,10.402 C8.063,10.402 8.405,10.431 8.734,10.491 C9.064,10.55 9.356,10.657 9.61,10.806 C9.863,10.959 10.065,11.172 10.219,11.441 C10.37,11.711 10.446,12.059 10.446,12.48 C10.446,13.242 10.219,13.791 9.761,14.129 C9.306,14.466 8.721,14.636 8.013,14.636 L3.981,14.636 L3.981,10.402 L3.981,10.402 Z M3.981,17.348 L8.317,17.348 C9.179,17.348 9.872,17.548 10.395,17.944 C10.919,18.343 11.183,19.005 11.183,19.935 C11.183,20.407 11.102,20.796 10.941,21.1 C10.78,21.405 10.565,21.646 10.293,21.824 C10.023,22 9.71,22.128 9.356,22.203 C9.002,22.28 8.63,22.318 8.24,22.318 L3.981,22.318 L3.981,17.348 L3.981,17.348 Z M110.312,12.48 C109.484,12.836 108.783,13.33 108.208,13.964 C107.633,14.599 107.198,15.349 106.902,16.221 C106.606,17.09 106.459,18.033 106.459,19.047 C106.459,20.028 106.618,20.927 106.94,21.747 C107.261,22.567 107.71,23.272 108.284,23.865 C108.859,24.456 109.556,24.916 110.376,25.247 C111.195,25.576 112.095,25.742 113.076,25.742 C114.817,25.742 116.246,25.284 117.36,24.372 C118.476,23.458 119.153,22.133 119.39,20.392 L115.917,20.392 C115.797,21.202 115.505,21.849 115.041,22.331 C114.576,22.813 113.912,23.052 113.051,23.052 C112.492,23.052 112.02,22.926 111.631,22.673 C111.241,22.418 110.934,22.095 110.706,21.696 C110.477,21.3 110.312,20.856 110.211,20.365 C110.11,19.876 110.058,19.395 110.058,18.92 C110.058,18.431 110.11,17.936 110.211,17.437 C110.312,16.939 110.486,16.482 110.731,16.068 C110.976,15.654 111.294,15.316 111.681,15.053 C112.07,14.792 112.553,14.661 113.126,14.661 C114.664,14.661 115.55,15.412 115.789,16.917 L119.314,16.917 C119.262,16.072 119.061,15.342 118.705,14.724 C118.35,14.108 117.889,13.592 117.324,13.177 C116.757,12.764 116.115,12.455 115.397,12.253 C114.676,12.049 113.929,11.948 113.151,11.948 C112.087,11.948 111.141,12.125 110.312,12.48 L110.312,12.48 Z M62.419,12.43 C61.745,12.752 61.186,13.266 60.747,13.976 L60.695,13.976 L60.695,12.302 L57.273,12.302 L57.273,30 L60.872,30 L60.872,23.788 L60.924,23.788 C61.362,24.43 61.927,24.916 62.61,25.247 C63.295,25.576 64.042,25.742 64.854,25.742 C65.817,25.742 66.658,25.554 67.375,25.183 C68.095,24.811 68.695,24.313 69.176,23.687 C69.659,23.062 70.018,22.344 70.254,21.531 C70.491,20.721 70.608,19.876 70.608,18.995 C70.608,18.067 70.491,17.175 70.254,16.322 C70.018,15.468 69.655,14.719 69.165,14.078 C68.673,13.437 68.057,12.92 67.313,12.532 C66.57,12.143 65.683,11.948 64.651,11.948 C63.84,11.948 63.096,12.109 62.419,12.43 L62.419,12.43 Z M62.419,22.697 C62.014,22.462 61.688,22.154 61.443,21.773 C61.199,21.392 61.021,20.949 60.912,20.442 C60.802,19.935 60.747,19.42 60.747,18.896 C60.747,18.355 60.798,17.832 60.899,17.324 C61,16.816 61.173,16.368 61.419,15.98 C61.664,15.591 61.985,15.274 62.381,15.028 C62.779,14.785 63.272,14.661 63.865,14.661 C64.439,14.661 64.926,14.785 65.322,15.028 C65.72,15.274 66.046,15.594 66.299,15.992 C66.553,16.39 66.734,16.841 66.843,17.348 C66.954,17.856 67.009,18.372 67.009,18.896 C67.009,19.42 66.958,19.935 66.856,20.442 C66.756,20.949 66.582,21.392 66.338,21.773 C66.092,22.154 65.771,22.462 65.375,22.697 C64.976,22.935 64.483,23.052 63.891,23.052 C63.316,23.052 62.826,22.935 62.419,22.697 L62.419,22.697 Z M47.608,12.48 C46.787,12.836 46.082,13.323 45.491,13.939 C44.899,14.555 44.441,15.287 44.121,16.131 C43.799,16.977 43.64,17.89 43.64,18.871 C43.64,19.883 43.795,20.813 44.108,21.659 C44.422,22.505 44.865,23.231 45.44,23.84 C46.013,24.447 46.717,24.916 47.544,25.247 C48.372,25.576 49.302,25.742 50.334,25.742 C51.82,25.742 53.089,25.403 54.136,24.726 C55.184,24.051 55.962,22.926 56.47,21.354 L53.3,21.354 C53.18,21.76 52.861,22.144 52.336,22.507 C51.812,22.872 51.187,23.052 50.46,23.052 C49.446,23.052 48.669,22.792 48.127,22.268 C47.586,21.743 47.291,20.899 47.241,19.732 L56.698,19.732 C56.763,18.718 56.68,17.746 56.443,16.816 C56.206,15.887 55.822,15.057 55.29,14.331 C54.758,13.605 54.078,13.026 53.25,12.594 C52.421,12.162 51.449,11.948 50.334,11.948 C49.336,11.948 48.428,12.125 47.608,12.48 L47.608,12.48 Z M47.405,16.588 C47.497,16.266 47.658,15.963 47.885,15.675 C48.115,15.387 48.42,15.148 48.798,14.953 C49.179,14.759 49.657,14.661 50.231,14.661 C51.11,14.661 51.766,14.898 52.198,15.371 C52.627,15.844 52.928,16.537 53.096,17.449 L47.241,17.449 C47.257,17.197 47.311,16.909 47.405,16.588 L47.405,16.588 Z M18.901,12.48 C18.081,12.836 17.376,13.323 16.785,13.939 C16.193,14.555 15.735,15.287 15.415,16.131 C15.13,16.879 14.973,17.679 14.939,18.532 C15.088,19.031 15.162,19.575 15.162,20.162 C15.162,20.367 15.153,20.566 15.135,20.758 C15.205,21.069 15.294,21.369 15.401,21.659 C15.715,22.505 16.16,23.231 16.734,23.84 C17.307,24.447 18.01,24.916 18.837,25.247 C19.666,25.576 20.597,25.742 21.627,25.742 C23.114,25.742 24.382,25.403 25.43,24.726 C26.478,24.051 27.255,22.926 27.764,21.354 L24.594,21.354 C24.474,21.76 24.154,22.144 23.629,22.507 C23.105,22.872 22.481,23.052 21.753,23.052 C20.739,23.052 19.962,22.792 19.422,22.268 C18.88,21.743 18.585,20.899 18.534,19.732 L27.99,19.732 C28.057,18.718 27.973,17.746 27.737,16.816 C27.5,15.887 27.116,15.057 26.584,14.331 C26.052,13.605 25.371,13.026 24.543,12.594 C23.715,12.162 22.743,11.948 21.627,11.948 C20.63,11.948 19.722,12.125 18.901,12.48 L18.901,12.48 Z M18.699,16.588 C18.791,16.266 18.952,15.963 19.179,15.675 C19.409,15.387 19.712,15.148 20.093,14.953 C20.473,14.759 20.951,14.661 21.525,14.661 C22.404,14.661 23.059,14.898 23.491,15.371 C23.921,15.844 24.221,16.537 24.39,17.449 L18.534,17.449 C18.55,17.197 18.604,16.909 18.699,16.588 L18.699,16.588 Z M102.326,25.411 L105.927,25.411 L105.927,12.302 L102.326,12.302 L102.326,25.411 L102.326,25.411 Z M79.559,12.302 L79.559,19.173 C79.559,20.509 79.34,21.468 78.9,22.052 C78.46,22.635 77.75,22.926 76.77,22.926 C75.906,22.926 75.307,22.66 74.969,22.128 C74.632,21.595 74.463,20.788 74.463,19.707 L74.463,12.302 L70.862,12.302 L70.862,20.365 C70.862,21.176 70.934,21.917 71.078,22.583 C71.221,23.252 71.469,23.818 71.826,24.282 C72.181,24.748 72.666,25.107 73.283,25.361 C73.9,25.613 74.691,25.742 75.654,25.742 C76.415,25.742 77.159,25.571 77.885,25.233 C78.611,24.896 79.205,24.347 79.659,23.586 L79.736,23.586 L79.736,25.411 L83.159,25.411 L83.159,12.302 L79.559,12.302 L79.559,12.302 Z" id="path-1"></path>
    </defs>
    <g id="Symbols" stroke="none" stroke-width="1" fill="none" fill-rule="evenodd">
        <g id="Icon/Logo-Hz">
            <g>
                <mask id="mask-2" fill="white">
                    <use xlink:href="#path-1"></use>
                </mask>
                <use id="logo-BR" fill="#434142" fill-rule="evenodd" xlink:href="#path-1"></use>
            </g>
        </g>
    </g>
</svg>