<svg xmlns="http://www.w3.org/2000/svg" viewBox="0 0 102.02 68.59"><defs><style>.a{fill:#eb6a6e;}</style></defs><title>Recurso 2</title><path class="a" d="M87.65,9.32s15.12,13.5,14.61,23.45c-.45,8.67-8.12,35.4-8.12,35.4L65.75,59.35,99.86,33.5l-31,1.81.18-1.09L85.78,10.12,59.57,17.68,50.5,1.9,36.38,37.22,28.51,60.65l-27-27,33.61,3L12.16,13.78l-.2-.11.17-.3L50.15.25Z" transform="translate(-0.25 -0.25)"/><polygon class="a" points="99.61 33.25 65.5 59.1 63.76 58.56 64.72 58.51 68.66 35.07 99.61 33.25"/><polygon class="a" points="93.89 67.91 52.97 68.59 65.5 59.1 93.89 67.91"/><polygon class="a" points="85.53 9.87 68.84 33.98 59.32 17.43 85.53 9.87"/><polygon class="a" points="59.32 17.43 68.84 33.98 66.77 35.18 36.13 36.97 50.25 1.65 59.32 17.43"/><polygon class="a" points="68.84 33.98 68.66 35.07 66.77 35.18 68.84 33.98"/><polygon class="a" points="68.66 35.07 64.72 58.51 63.76 58.56 40.83 51.44 50.26 44.73 66.77 35.18 68.66 35.07"/><polygon class="a" points="66.77 35.18 50.26 44.73 40.83 51.44 39.93 51.16 36.13 36.97 66.77 35.18"/><polygon class="a" points="65.5 59.1 52.97 68.59 28.04 61.13 28.26 60.39 63.76 58.56 65.5 59.1"/><polygon class="a" points="63.76 58.56 28.26 60.39 40.83 51.44 63.76 58.56"/><polygon class="a" points="40.83 51.44 28.26 60.39 36.13 36.97 39.93 51.16 40.83 51.44"/><polygon class="a" points="11.91 13.53 34.83 36.36 1.22 33.38 11.91 13.53"/><path class="a" d="M1.47,33.63l27,27-.22.74L28,61.31c-.33-.1-.67-.21-1-.33L4.24,52.84.25,34.2,12,13.67l.2.11Z" transform="translate(-0.25 -0.25)"/></svg>