<svg xmlns="http://www.w3.org/2000/svg" viewBox="0 0 134.19 90.53"><defs><style>.a{fill:none;stroke:#c7d468;stroke-miterlimit:10;}</style></defs><title>Recurso 2</title><path class="a" d="M.83,43.74a4.9,4.9,0,0,1,.32-.67l13.68-24a5,5,0,0,1,2.7-2.24L64.12.77A5,5,0,0,1,66.91.64L113.3,11.86a4.89,4.89,0,0,1,2.24,1.22c4,3.78,18.7,18.5,18.13,29.76-.47,9.13-7.06,33.54-9.62,42.75a5,5,0,0,1-4.7,3.63L70.29,90a5.14,5.14,0,0,1-1.5-.21l-32.11-9.6c-.52-.16-1-.33-1.56-.51L8,70a5,5,0,0,1-3.19-3.64L.61,46.57A5,5,0,0,1,.83,43.74Z"/><path class="a" d="M32.1,46.66l-22.78-2a5,5,0,0,1-3.94-7.31l7.25-13.46a5,5,0,0,1,7.88-1.16L36.05,38.18A5,5,0,0,1,32.1,46.66Z"/><path class="a" d="M123.05,89.16l-1.53-.48L85.91,77.63l-3.22-1L55.07,68.05a4.91,4.91,0,0,1-1.24-.59,5,5,0,0,1-2.08-2.88,5,5,0,0,0-9.51-.3l-2.5,7.43a5,5,0,0,1-8.23,1.93L1.81,44"/><line class="a" x1="77.83" y1="23.1" x2="77.6" y2="23.17"/><path class="a" d="M77.83,23.1l8.53,14.84a5,5,0,0,0,8.4.35l9.42-13.61a5,5,0,0,0-5.47-7.6Z"/><path class="a" d="M69.52,90l.07-.05L85.91,77.63,117.5,53.69a5,5,0,0,0-3.29-8.92L55.3,48.21a5,5,0,0,1-4.9-6.81L62.15,12a5,5,0,0,1,8.92-.63L77.83,23.1"/><path class="a" d="M82.68,76.62a4.85,4.85,0,0,1-1.78.43L54.22,78.44a5,5,0,0,1-3.14-9l2.75-2L65.77,59l.4-.26,15-8.66a5,5,0,0,1,7.39,5.13l-3,17.74A5,5,0,0,1,82.68,76.62Z"/></svg>