<svg xmlns="http://www.w3.org/2000/svg" viewBox="0 0 497.72 334.9"><defs><style>.a{opacity:0.63;}.b{fill:none;stroke:#c7d468;stroke-miterlimit:10;}</style></defs><title>Recurso 2</title><g class="a"><path class="b" d="M1.74,161.77a18.29,18.29,0,0,1,1.19-2.51l51-89.43A18.59,18.59,0,0,1,64,61.48l173.75-60A18.49,18.49,0,0,1,248.17,1l173,41.84a18.25,18.25,0,0,1,8.37,4.54c14.89,14.08,69.76,69,67.6,111-1.75,34-26.33,125.1-35.86,159.42a18.51,18.51,0,0,1-17.54,13.54l-183,3a19.17,19.17,0,0,1-5.61-.78l-119.75-35.8c-2-.59-3.89-1.22-5.81-1.91l-101-36.1a18.51,18.51,0,0,1-11.89-13.56L.91,172.32A18.52,18.52,0,0,1,1.74,161.77Z"/><path class="b" d="M118.36,172.64l-85-7.55a18.52,18.52,0,0,1-14.68-27.25l27-50.18a18.53,18.53,0,0,1,29.39-4.34L133.09,141C145.38,153.27,135.65,174.17,118.36,172.64Z"/><path class="b" d="M457.54,331.14l-5.72-1.78L319,288.14l-12-3.74-103-32a18.33,18.33,0,0,1-4.64-2.19,18.59,18.59,0,0,1-7.77-10.73,18.53,18.53,0,0,0-35.48-1.1l-9.31,27.7a18.54,18.54,0,0,1-30.68,7.2L5.37,162.6"/><line class="b" x1="288.9" y1="84.8" x2="288.05" y2="85.04"/><path class="b" d="M288.9,84.8l31.81,55.33A18.54,18.54,0,0,0,352,141.44l35.12-50.76c9.92-14.33-3.64-33.2-20.39-28.35Z"/><path class="b" d="M257.91,334.44l.26-.2L319,288.14l117.83-89.28c14.6-11.07,6-34.35-12.28-33.27L204.86,178.43a18.53,18.53,0,0,1-18.29-25.38l43.86-109.7A18.54,18.54,0,0,1,263.71,41L288.9,84.8"/><path class="b" d="M307,284.4a18.1,18.1,0,0,1-6.62,1.6l-99.53,5.16c-18.53.95-26.81-22.86-11.72-33.62l10.27-7.3,44.54-31.72c.48-.34,1-.65,1.48-1l55.83-32.3a18.55,18.55,0,0,1,27.58,19.12L317.7,270.56A18.52,18.52,0,0,1,307,284.4Z"/></g></svg>