<svg xmlns="http://www.w3.org/2000/svg" viewBox="0 0 148.27 146.32"><defs><style>.a{fill:#5ebeba;}.b{fill:#eb6a6e;}.c{fill:none;stroke:#c3d460;stroke-miterlimit:10;}</style></defs><title>Recurso 1</title><polygon class="a" points="148.27 48.12 50.07 146.32 0 0 148.27 48.12"/><path class="b" d="M97.62,36.24s15.12,13.5,14.61,23.45c-.45,8.67-8.12,35.4-8.12,35.4L75.72,86.27l34.11-25.85-31,1.81.18-1.09L95.75,37,69.54,44.6,60.47,28.82,46.35,64.14,38.47,87.57l-27-27,33.61,3L22.13,40.7l-.2-.11.17-.3,38-13.12Z"/><polygon class="b" points="109.83 60.43 75.72 86.27 73.97 85.73 74.94 85.68 78.87 62.24 109.83 60.43"/><polygon class="b" points="104.11 95.09 63.19 95.76 75.72 86.27 104.11 95.09"/><polygon class="b" points="95.75 37.04 79.06 61.15 69.54 44.6 95.75 37.04"/><polygon class="b" points="69.54 44.6 79.06 61.15 76.99 62.35 46.35 64.14 60.47 28.82 69.54 44.6"/><polygon class="b" points="79.06 61.15 78.87 62.24 76.99 62.35 79.06 61.15"/><polygon class="b" points="78.87 62.24 74.94 85.68 73.97 85.73 51.05 78.61 60.48 71.9 76.99 62.35 78.87 62.24"/><polygon class="b" points="76.99 62.35 60.48 71.9 51.05 78.61 50.15 78.33 46.35 64.14 76.99 62.35"/><polygon class="b" points="75.72 86.27 63.19 95.76 38.25 88.31 38.48 87.57 73.97 85.73 75.72 86.27"/><polygon class="b" points="73.97 85.73 38.48 87.57 51.05 78.61 73.97 85.73"/><polygon class="b" points="51.05 78.61 38.48 87.57 46.35 64.14 50.15 78.33 51.05 78.61"/><polygon class="b" points="22.13 40.7 45.05 63.53 11.44 60.55 22.13 40.7"/><path class="b" d="M11.44,60.55l27,27-.22.74L38,88.23c-.33-.1-.67-.21-1-.33L14.21,79.76l-4-18.64L21.93,40.59l.2.11Z"/><path class="c" d="M2,62.12a4.34,4.34,0,0,1,.28-.6l12.1-21.21a4.39,4.39,0,0,1,2.38-2L58,24.12A4.4,4.4,0,0,1,60.47,24l41,9.92a4.36,4.36,0,0,1,2,1.08c3.53,3.34,16.54,16.36,16,26.32-.42,8.07-6.24,29.67-8.5,37.8a4.4,4.4,0,0,1-4.16,3.21l-43.39.72a4.38,4.38,0,0,1-1.33-.18l-28.4-8.49c-.46-.14-.92-.29-1.37-.45L8.41,85.38a4.4,4.4,0,0,1-2.82-3.22L1.83,64.63A4.41,4.41,0,0,1,2,62.12Z"/><path class="c" d="M29.69,64.7,9.54,62.91a4.4,4.4,0,0,1-3.48-6.46l6.41-11.9a4.4,4.4,0,0,1,7-1L33.18,57.21A4.4,4.4,0,0,1,29.69,64.7Z"/><path class="c" d="M110.12,102.29l-1.35-.42-31.5-9.78-2.85-.88L50,83.63a4.46,4.46,0,0,1-1.1-.52,4.4,4.4,0,0,1-1.84-2.54,4.39,4.39,0,0,0-8.41-.27l-2.21,6.57a4.39,4.39,0,0,1-7.27,1.71L2.9,62.32"/><line class="c" x1="70.13" y1="43.87" x2="69.93" y2="43.93"/><path class="c" d="M70.13,43.87,77.67,57a4.4,4.4,0,0,0,7.43.31l8.33-12a4.4,4.4,0,0,0-4.84-6.73Z"/><path class="c" d="M62.78,103.07l.06,0L77.28,92.09l27.94-21.17A4.4,4.4,0,0,0,102.31,63L50.2,66.08a4.4,4.4,0,0,1-4.34-6l10.4-26a4.4,4.4,0,0,1,7.89-.56l6,10.39"/><path class="c" d="M74.43,91.21a4.32,4.32,0,0,1-1.58.38l-23.6,1.22a4.4,4.4,0,0,1-2.78-8l2.43-1.73,10.56-7.52.35-.23L73.06,67.7a4.4,4.4,0,0,1,6.54,4.53L77,87.93A4.39,4.39,0,0,1,74.43,91.21Z"/></svg>