<?xml version="1.0" encoding="UTF-8"?>
<svg width="161px" height="56px" viewBox="0 0 161 56" version="1.1" xmlns="http://www.w3.org/2000/svg" xmlns:xlink="http://www.w3.org/1999/xlink">
    <!-- Generator: Sketch 49.1 (51147) - http://www.bohemiancoding.com/sketch -->
    <title>Logo Elma</title>
    <desc>Created with Sketch.</desc>
    <defs>
        <polygon id="path-1" points="0.175510067 0 91.8144564 0 91.8144564 37.9803667 0.175510067 37.9803667"></polygon>
        <linearGradient x1="0%" y1="2.60506572%" x2="100%" y2="95.9253759%" id="linearGradient-3">
            <stop stop-color="#8700EF" offset="0%"></stop>
            <stop stop-color="#4430F2" offset="55.2181178%"></stop>
            <stop stop-color="#113DF2" offset="100%"></stop>
        </linearGradient>
        <path d="M0,20 C0,31.0455385 8.95446154,40 20,40 C31.0455385,40 40,31.0455385 40,20 C40,8.95415385 31.0455385,0 20,0 C8.95446154,0 0,8.95415385 0,20 M17.2464615,26.5150769 C14.1895385,23.7412308 12.2501538,20.1396923 12.0535385,16.8726154 C11.8541538,14.6409231 12.5966154,12.4126154 14.0910769,10.7544615 C15.5926154,9.08892308 17.7406154,8.12 19.9833846,8.09569231 C22.2603077,8.12 24.4070769,9.08953846 25.9092308,10.7550769 C27.4036923,12.4126154 28.1446154,14.6409231 27.9458462,16.8726154 C27.7495385,20.1396923 25.8107692,23.7412308 22.7538462,26.5150769 C24.3907692,27.3150769 26.164,27.7578462 27.9378462,27.6769231 L27.9978462,27.6750769 C28.0095385,27.6750769 29.6098462,27.6433846 31.2704615,27.0489231 C32.0910769,26.7556923 32.9950769,27.1824615 33.2886154,28.0033846 C33.5821538,28.8243077 33.1547692,29.7276923 32.3344615,30.0212308 C30.2849231,30.7541538 28.3596923,30.8243077 28.0664615,30.8307692 C27.8873846,30.8387692 27.7073846,30.8433846 27.5276923,30.8433846 C25.0175385,30.8433846 22.4027692,30.0470769 20,28.5812308 C17.4252308,30.1529231 14.612,30.9532308 11.9338462,30.8307692 C11.6403077,30.8243077 9.71476923,30.7541538 7.66553846,30.0212308 C6.84461538,29.7276923 6.41753846,28.8243077 6.71107692,28.0033846 C7.00461538,27.1827692 7.90676923,26.7563077 8.72923077,27.0489231 C10.3867692,27.6421538 11.9870769,27.6750769 12.0024615,27.6750769 L12.0621538,27.6769231 C12.2070769,27.684 12.352,27.6873846 12.4966154,27.6873846 C14.1227692,27.6873846 15.744,27.2495385 17.2464615,26.5150769 M16.4353846,12.8683077 C15.5098462,13.8953846 15.0710769,15.2236923 15.1996923,16.6089231 L15.204,16.6649231 C15.3615385,19.4224615 17.28,22.5313846 20,24.7433846 C22.7196923,22.5313846 24.6384615,19.4224615 24.7956923,16.6649231 L24.8,16.6089231 C24.9289231,15.2236923 24.4898462,13.8953846 23.5643077,12.8686154 C22.6384615,11.8412308 21.3661538,11.2676923 19.9833846,11.2526154 C18.6335385,11.2670769 17.3618462,11.8412308 16.4353846,12.8683077" id="path-4"></path>
    </defs>
    <g id="logo-elma" stroke="none" stroke-width="1" fill="none" fill-rule="evenodd">
        <g id="Group-3" transform="translate(59.000000, 4.000000)">
            <mask id="mask-2" fill="white">
                <use xlink:href="#path-1"></use>
            </mask>
            <g id="Clip-2"></g>
            <path d="M88.6477114,28.2362167 C88.6477114,32.6891833 85.2261141,34.9416333 81.6504631,34.9416333 C77.667604,34.9416333 75.8288389,33.21295 75.8288389,30.4889833 C75.8288389,27.4505667 78.1272953,26.0360167 81.4467047,26.0360167 L88.6477114,26.0360167 L88.6477114,28.2362167 Z M82.621094,12.78225 C78.3310537,12.78225 75.572906,14.61575 74.1432013,16.9207667 C73.9897651,17.18265 73.8875772,17.44485 73.8875772,17.81155 C73.8875772,18.64945 74.5516443,19.3302833 75.3688389,19.3302833 C75.8288389,19.3302833 76.1863423,19.1735333 76.6963557,18.5972 C78.2798054,16.7640167 79.9148121,15.9254833 82.621094,15.9254833 C86.3498725,15.9254833 88.6477114,18.1256833 88.6477114,21.6878667 L88.6477114,23.1024167 L81.4467047,23.1024167 C75.9307181,23.1024167 72.5091208,25.8792667 72.5091208,30.4889833 C72.5091208,35.3083333 75.9307181,37.9803667 81.3445168,37.9803667 C84.4089195,37.9803667 87.3711342,36.6703167 88.6477114,34.20855 L88.6477114,36.0943 C88.6477114,36.9850833 89.3627181,37.7181667 90.2308523,37.7181667 C91.099604,37.7181667 91.8146107,36.9850833 91.8146107,36.0943 L91.8146107,21.6878667 C91.8146107,16.3444333 88.5455235,12.78225 82.621094,12.78225 Z M59.518906,12.78225 C55.5863691,12.78225 53.3394698,14.4064333 52.0625839,16.44925 C50.8363289,14.35355 48.1297383,12.78225 43.9418859,12.78225 C40.6218591,12.78225 38.1705839,14.5109333 37.3027584,16.44925 L37.3027584,14.7731333 C37.3027584,13.8301 36.587443,13.0963833 35.6683691,13.0963833 C34.7486779,13.0963833 34.0342886,13.8301 34.0342886,14.7731333 L34.0342886,36.04205 C34.0342886,36.9850833 34.7486779,37.7181667 35.6683691,37.7181667 C36.587443,37.7181667 37.3027584,36.9850833 37.3027584,36.04205 L37.3027584,23.1024167 C37.3027584,18.7020167 38.834651,15.7681 43.5843826,15.7681 C48.5891208,15.7681 49.8666242,18.5972 49.8666242,22.7357167 L49.8666242,36.04205 C49.8666242,36.9850833 50.5813221,37.7181667 51.5010134,37.7181667 C52.4197785,37.7181667 53.135094,36.9850833 53.135094,36.04205 L53.135094,22.0548833 C53.135094,18.1779333 55.1269866,15.7681 59.518906,15.7681 C64.4730134,15.7681 65.9033356,18.5972 65.9033356,22.7357167 L65.9033356,36.04205 C65.9033356,36.9850833 66.6180336,37.7181667 67.5371074,37.7181667 C68.4567987,37.7181667 69.1718054,36.9850833 69.1718054,36.04205 L69.1718054,22.0548833 C69.1718054,17.6016 67.3842886,12.78225 59.518906,12.78225 Z M29.4688658,34.57525 C28.0904094,34.57525 27.4260336,33.6844667 27.4260336,31.5890833 L27.4260336,1.67611667 C27.4260336,0.785966667 26.7113356,0 25.7916443,0 C24.9238188,0 24.1575638,0.785966667 24.1575638,1.67611667 L24.1575638,31.5890833 C24.1575638,35.6227833 26.0472685,37.7181667 29.4688658,37.7181667 C30.2857517,37.7181667 31.0010671,37.0373333 31.0010671,36.14655 C31.0010671,35.2564 30.2857517,34.57525 29.4688658,34.57525 Z M3.49584564,23.4168667 C3.80179195,18.7542667 6.25306711,15.8209833 10.6965436,15.8209833 C15.956906,15.8209833 17.2344094,19.64505 17.2344094,23.4168667 L3.49584564,23.4168667 Z M10.6965436,12.78225 C4.05710738,12.78225 0.175510067,17.2874667 0.175510067,25.3548667 C0.175510067,34.1559833 4.41491946,37.9803667 11.2074832,37.9803667 C15.7528389,37.9803667 18.4084899,35.8327333 19.1753624,35.04645 C19.481,34.7323167 19.7369329,34.4181833 19.7369329,33.84185 C19.7369329,33.0036333 19.0722483,32.3224833 18.2556711,32.3224833 C17.8469195,32.3224833 17.6422349,32.4273 17.3362886,32.6366167 C15.9062752,33.7370333 14.1693893,34.8897 11.2074832,34.8897 C6.40650336,34.8897 3.49584564,31.5368333 3.49584564,26.3507833 L18.4084899,26.3507833 C20.4516309,26.3507833 20.4516309,24.5172833 20.4516309,22.9979167 C20.4516309,19.4357333 18.8681812,12.78225 10.6965436,12.78225 Z" id="Fill-1" fill="#4430F2" mask="url(#mask-2)"></path>
        </g>
        <g id="Group-6" transform="translate(10.000000, 9.000000)">
            <mask id="mask-5" fill="white">
                <use xlink:href="#path-4"></use>
            </mask>
            <use id="Clip-5" fill="url(#linearGradient-3)" xlink:href="#path-4"></use>
            <path d="M0,20 C0,31.0455385 8.95446154,40 20,40 C31.0455385,40 40,31.0455385 40,20 C40,8.95415385 31.0455385,0 20,0 C8.95446154,0 0,8.95415385 0,20 M17.2464615,26.5150769 C14.1895385,23.7412308 12.2501538,20.1396923 12.0535385,16.8726154 C11.8541538,14.6409231 12.5966154,12.4126154 14.0910769,10.7544615 C15.5926154,9.08892308 17.7406154,8.12 19.9833846,8.09569231 C22.2603077,8.12 24.4070769,9.08953846 25.9092308,10.7550769 C27.4036923,12.4126154 28.1446154,14.6409231 27.9458462,16.8726154 C27.7495385,20.1396923 25.8107692,23.7412308 22.7538462,26.5150769 C24.3907692,27.3150769 26.164,27.7578462 27.9378462,27.6769231 L27.9978462,27.6750769 C28.0095385,27.6750769 29.6098462,27.6433846 31.2704615,27.0489231 C32.0910769,26.7556923 32.9950769,27.1824615 33.2886154,28.0033846 C33.5821538,28.8243077 33.1547692,29.7276923 32.3344615,30.0212308 C30.2849231,30.7541538 28.3596923,30.8243077 28.0664615,30.8307692 C27.8873846,30.8387692 27.7073846,30.8433846 27.5276923,30.8433846 C25.0175385,30.8433846 22.4027692,30.0470769 20,28.5812308 C17.4252308,30.1529231 14.612,30.9532308 11.9338462,30.8307692 C11.6403077,30.8243077 9.71476923,30.7541538 7.66553846,30.0212308 C6.84461538,29.7276923 6.41753846,28.8243077 6.71107692,28.0033846 C7.00461538,27.1827692 7.90676923,26.7563077 8.72923077,27.0489231 C10.3867692,27.6421538 11.9870769,27.6750769 12.0024615,27.6750769 L12.0621538,27.6769231 C12.2070769,27.684 12.352,27.6873846 12.4966154,27.6873846 C14.1227692,27.6873846 15.744,27.2495385 17.2464615,26.5150769 M16.4353846,12.8683077 C15.5098462,13.8953846 15.0710769,15.2236923 15.1996923,16.6089231 L15.204,16.6649231 C15.3615385,19.4224615 17.28,22.5313846 20,24.7433846 C22.7196923,22.5313846 24.6384615,19.4224615 24.7956923,16.6649231 L24.8,16.6089231 C24.9289231,15.2236923 24.4898462,13.8953846 23.5643077,12.8686154 C22.6384615,11.8412308 21.3661538,11.2676923 19.9833846,11.2526154 C18.6335385,11.2670769 17.3618462,11.8412308 16.4353846,12.8683077" id="Fill-4" mask="url(#mask-5)"></path>
        </g>
    </g>
</svg>